# xmcd
#
# Track frame offsets: 
#        150
#        14885
#        25222
#        36304
#        50382
#        61939
#        73559
#        85355
#        97737
#        110763
#        123576
#        136504
#        146697
#        157350
#        169645
#
# Disc length: 2500 seconds
#
# Revision: 1
# Processed by: cddbd v1.5.2PL0 Copyright (c) Steve Scherf et al.
# Submitted via: ExactAudioCopy v0.99pb4
#
DISCID=d309c20f
DTITLE=Various Artist - Classic Country Sweet Country Ballads [CD 2]
DYEAR=2005
DGENRE=Country
TTITLE0=Marty Robbins - Don't Worry
TTITLE1=George Jones - Walk Through This World With Me
TTITLE2=Patsy Cline - Leavin' On Your Mind
TTITLE3=Charley Pride - I Can't Believe You Stoped Loving Me
TTITLE4=Sammi Smith - Help Me Make It Through The Night
TTITLE5=Jack Greene - There Goes My Everything
TTITLE6=Don Gibson - I Can't Stop Loving You
TTITLE7=Glen Campbell - By The Time I Get To Phoenix
TTITLE8=David Houston and Tammy Wynette - My Elusive Dreams
TTITLE9=Elvis Presley - Don't
TTITLE10=The Browns - The Three Bells (Les Trois Cloches)
TTITLE11=Jim Reeves - Is It Really Over?
TTITLE12=Sonny James - Empty Arms
TTITLE13=Roy Drusky - Three Hearts In A Tangle
TTITLE14=Bobby Goldsboro - Honey
EXTD=YEAR: 2005
EXTT0=
EXTT1=
EXTT2=
EXTT3=
EXTT4=
EXTT5=
EXTT6=
EXTT7=
EXTT8=
EXTT9=
EXTT10=
EXTT11=
EXTT12=
EXTT13=
EXTT14=
PLAYORDER=
